<?xml version="1.0" encoding="utf-8"?>
<!-- Generator: Adobe Illustrator 18.0.0, SVG Export Plug-In . SVG Version: 6.00 Build 0)  -->
<!DOCTYPE svg PUBLIC "-//W3C//DTD SVG 1.1//EN" "http://www.w3.org/Graphics/SVG/1.1/DTD/svg11.dtd">
<svg version="1.1" id="Layer_1" xmlns="http://www.w3.org/2000/svg" xmlns:xlink="http://www.w3.org/1999/xlink" x="0px" y="0px"
	 viewBox="0 0 17.6 17.6" enable-background="new 0 0 17.6 17.6" xml:space="preserve">
<g id="b3f-10xx_1_" transform="matrix(1, 0, 0, 1, 99.1634, 140.039)">
	<g transform="matrix(-1, 0, 0, -1, 17.641, 23.608)">
		<g>
			<path fill="#FFFFFF" stroke="#454544" stroke-width="0.5" stroke-miterlimit="10" d="M116.4,161.9c0,0.8-0.6,1.4-1.4,1.4h-14.1
				c-0.8,0-1.4-0.6-1.4-1.4v-14.1c0-0.8,0.6-1.4,1.4-1.4H115c0.8,0,1.4,0.6,1.4,1.4L116.4,161.9L116.4,161.9z"/>
			<circle fill="#FFFFFF" stroke="#454544" stroke-width="0.25" stroke-miterlimit="10" cx="102.1" cy="149" r="1.4"/>
			<circle fill="#FFFFFF" stroke="#454544" stroke-width="0.25" stroke-miterlimit="10" cx="113.9" cy="149" r="1.4"/>
			<circle fill="#FFFFFF" stroke="#454544" stroke-width="0.25" stroke-miterlimit="10" cx="113.9" cy="160.8" r="1.4"/>
			<circle fill="#FFFFFF" stroke="#454544" stroke-width="0.25" stroke-miterlimit="10" cx="102.1" cy="160.7" r="1.4"/>
			<circle fill="#454544" cx="108" cy="154.8" r="5.1"/>
			<circle fill="#FFFFFF" cx="108" cy="154.8" r="4.4"/>
		</g>
	</g>
</g>
</svg>
