<?xml version="1.0" encoding="utf-8"?>
<!-- Generator: Adobe Illustrator 18.0.0, SVG Export Plug-In . SVG Version: 6.00 Build 0)  -->
<!DOCTYPE svg PUBLIC "-//W3C//DTD SVG 1.1//EN" "http://www.w3.org/Graphics/SVG/1.1/DTD/svg11.dtd">
<svg version="1.1" id="Layer_1" xmlns="http://www.w3.org/2000/svg" xmlns:xlink="http://www.w3.org/1999/xlink" x="0px" y="0px"
	 viewBox="0 0 233.3 156" enable-background="new 0 0 233.3 156" xml:space="preserve">
<rect x="4.7" y="1.4" fill="#FFFFFF" stroke="#414141" stroke-width="0.5" stroke-miterlimit="10" width="226.8" height="152.5"/>
<polyline fill="#FFFFFF" stroke="#414141" stroke-width="0.5" stroke-miterlimit="10" points="4.7,103.5 4.7,153.9 141.5,153.9 
	141.5,103.5 4.7,103.5 "/>
<g id="c0402" transform="matrix(1, 0, 0, 1, 19.3128, 132.584)">
	<g>
		<g>
			<rect x="-12.9" y="-9.8" fill="#999999" width="2.6" height="5.7"/>
		</g>
		<g>
			<path fill="none" stroke="#FFFFFF" stroke-width="0.25" stroke-miterlimit="10" d="M-12.1-5.5"/>
		</g>
		<g>
			<path fill="#CBA580" d="M-12.5-5.4v-3.4c0-0.1,0.1-0.1,0.1-0.1h1.4c0.1,0,0.1,0.1,0.1,0.1v3.6c0,0.1-0.1,0.1-0.1,0.1h-0.3
				c0,0-0.1,0-0.1,0.1v0.2c0,0,0,0,0,0c0,0,0,0,0,0v-0.2c0-0.1,0.1-0.1,0.1-0.1h0.3c0,0,0.1,0,0.1-0.1v-3.6c0,0,0-0.1-0.1-0.1h-1.4
				c0,0-0.1,0-0.1,0.1L-12.5-5.4c0,0,0.1,0.1,0.1,0.1h1.3c0,0,0.1,0,0.1-0.1v-3.1c0,0,0-0.1-0.1-0.1h-1.2c0,0-0.1,0-0.1,0.1v2.9
				c0,0,0,0.1,0,0.1h1.1c0,0,0.1,0,0.1-0.1v-2.7c0,0,0-0.1-0.1-0.1h-0.9c0,0-0.1,0-0.1,0.1v2.5c0,0,0,0.1,0.1,0.1h0.8
				c0,0,0.1,0,0.1-0.1v-2.3c0,0,0-0.1-0.1-0.1h-0.8c0,0,0,0,0,0c0,0,0,0,0,0h0.8c0.1,0,0.1,0.1,0.1,0.1v2.3c0,0.1-0.1,0.1-0.1,0.1
				h-0.8c-0.1,0-0.1-0.1-0.1-0.1v-2.5c0-0.1,0.1-0.1,0.1-0.1h0.9c0.1,0,0.1,0.1,0.1,0.1v2.7c0,0.1-0.1,0.1-0.1,0.1h-1.1
				c0,0-0.1-0.1-0.1-0.1v-2.9c0-0.1,0.1-0.1,0.1-0.1h1.2c0.1,0,0.1,0.1,0.1,0.1v3.1c0,0.1-0.1,0.1-0.1,0.1h-1.3
				C-12.4-5.2-12.5-5.3-12.5-5.4z"/>
		</g>
		<g>
			<g>
				<g opacity="0.2">
					<rect x="-10.4" y="-9.8" fill="#FFFFFF" width="0" height="5.7"/>
				</g>
			</g>
			<g>
				<g>
					<path fill="#DCDCDC" d="M-10.5-9.2L-10.5-9.2l0.1-0.6h-2.6v0.6c0.2,0,0.5,0.1,0.7,0.1C-11.9-9.1-10.7-9.1-10.5-9.2z"/>
				</g>
				<g>
					<path fill="#DCDCDC" d="M-12.2-4.8c-0.2,0-0.5,0.1-0.7,0.1v0.6h2.6v-0.6h-0.1C-10.7-4.8-11.9-4.8-12.2-4.8z"/>
				</g>
				<g opacity="0.5">
					<rect x="-10.4" y="-9.8" fill="#FFFFFF" width="0" height="0.6"/>
				</g>
				<g opacity="0.5">
					<rect x="-10.4" y="-4.7" fill="#FFFFFF" width="0" height="0.6"/>
				</g>
				<g>
					<line fill="none" x1="-12.9" y1="-9.3" x2="-12.9" y2="-9.3"/>
				</g>
			</g>
		</g>
	</g>
</g>
<polygon fill="#A5A5A5" points="86.7,139.3 86.7,139.3 84.2,139.3 84.2,139.3 84.2,139.9 84.2,139.9 84.2,144.4 84.2,144.4 
	84.2,145 86.7,145 86.7,145 86.7,145 86.7,139.3 "/>
<polygon fill="#A5A5A5" points="89.1,133.2 89.1,133.2 89.1,133.8 89.1,138.3 89.1,138.3 89.1,138.9 89.1,138.9 89.1,138.9 
	91.6,138.9 91.6,138.9 91.6,138.3 91.6,133.8 91.6,133.2 91.6,133.2 "/>
<polygon fill="#A5A5A5" points="90.2,119.7 87.6,119.7 87.6,119.7 87.6,119.7 87.6,124.7 87.6,125.3 87.6,125.3 87.6,125.3 
	87.7,125.3 90.2,125.3 90.2,125.3 90.2,124.7 90.2,120.3 90.2,120.3 "/>
<polygon fill="#A5A5A5" points="97.7,112.3 97.7,111.7 95.2,111.7 95.2,111.7 95.2,111.7 95.2,112.3 95.2,112.3 95.2,116.8 
	95.2,116.8 95.2,117.4 95.2,117.4 97.7,117.4 97.7,117.4 97.7,116.8 97.7,116.8 97.7,112.3 "/>
<g id="con2_usb_micro_b_at_1_" transform="matrix(1, 0, 0, 1, 14.5557, 123.449)">
	<g id="con2_usb_micro_b_at" transform="matrix(1, 0, 0, 1, 18.6038, 120.082)">
		<g>
			<rect x="-16.3" y="-119.1" fill="#666666" width="1.2" height="1"/>
			<rect x="-16.2" y="-119.1" fill="#999999" width="1.1" height="0.1"/>
		</g>
		<g>
			<rect x="-16.3" y="-117.2" fill="#666666" width="1.2" height="1"/>
			<rect x="-16.2" y="-117.2" fill="#999999" width="1.1" height="0.1"/>
		</g>
		<g>
			<rect x="-16.3" y="-115.4" fill="#666666" width="1.2" height="1"/>
			<rect x="-16.2" y="-115.4" fill="#999999" width="1.1" height="0.1"/>
		</g>
		<g>
			<rect x="-16.3" y="-113.5" fill="#666666" width="1.2" height="1"/>
			<rect x="-16.2" y="-113.5" fill="#999999" width="1.1" height="0.1"/>
		</g>
		<g>
			<rect x="-16.3" y="-111.7" fill="#666666" width="1.2" height="1"/>
			<rect x="-16.2" y="-111.7" fill="#999999" width="1.1" height="0.1"/>
		</g>
		<g>
			<polygon fill="#B3B3B3" points="-33,-105.4 -33,-124.3 -16,-124.3 -16,-105.4 			"/>
			<rect x="-25.7" y="-105.2" fill="#666666" width="3" height="1"/>
			<rect x="-25.7" y="-125.5" fill="#666666" width="3" height="1"/>
			<rect x="-16.2" y="-124.3" fill="#CCCCCC" width="0.1" height="18.8"/>
			<rect x="-31.6" y="-120" fill="#333333" width="15.6" height="10.3"/>
			<polygon fill="#B3B3B3" points="-32.7,-124.5 -33.1,-124.5 -34.2,-125.1 -34.2,-125.5 			"/>
			<polygon fill="#CCCCCC" points="-33.1,-124.5 -33.1,-124.5 -33.7,-124.5 -34.2,-125.1 			"/>
			<polygon fill="#B3B3B3" points="-34.2,-104.2 -34.2,-104.6 -33.1,-105.2 -32.7,-105.2 			"/>
			<polygon fill="#CCCCCC" points="-34.2,-104.6 -33.7,-105.2 -33.1,-105.2 -33.1,-105.2 			"/>
			<g>
				<g>
					<rect x="-32.7" y="-110.9" fill="#F2F2F2" width="0.6" height="0.5"/>
				</g>
				<g>
					<rect x="-32.7" y="-113" fill="#F2F2F2" width="0.6" height="0.5"/>
				</g>
				<g>
					<rect x="-32.7" y="-115.1" fill="#F2F2F2" width="0.6" height="0.5"/>
				</g>
				<g>
					<rect x="-32.7" y="-117.2" fill="#F2F2F2" width="0.6" height="0.5"/>
				</g>
				<g>
					<rect x="-32.7" y="-119.3" fill="#F2F2F2" width="0.6" height="0.5"/>
				</g>
				<g>
					<rect x="-32.7" y="-119.3" fill="#808080" width="0.6" height="0.1"/>
				</g>
				<g>
					<rect x="-32.7" y="-117.2" fill="#808080" width="0.6" height="0.1"/>
				</g>
				<g>
					<rect x="-32.7" y="-115.1" fill="#808080" width="0.6" height="0.1"/>
				</g>
				<g>
					<rect x="-32.7" y="-113" fill="#808080" width="0.6" height="0.1"/>
				</g>
				<g>
					<rect x="-32.7" y="-110.9" fill="#808080" width="0.6" height="0.1"/>
				</g>
			</g>
			<path fill="#4D4D4D" d="M-32.9-119.8v0.5h0.4v0.5h-0.4v1.6h0.4v0.5h-0.4v1.6h0.4v0.5h-0.4v1.6h0.4v0.5h-0.4v1.6h0.4v0.5h-0.4v0.3
				v0.3c0,0.1,0.1,0.1,0.1,0.1h1.1c0.1,0,0.1-0.1,0.1-0.1v-10c0-0.1-0.1-0.1-0.1-0.1h-1.1C-32.8-120-32.9-120-32.9-119.8
				L-32.9-119.8z"/>
			<path fill="#CCCCCC" d="M-16.6-124.5l0.6,0.2v2.5c0,0-0.1-2.3-0.3-2.4c-0.2-0.1-0.3,0.1-0.3,0.1V-124.5z"/>
			<path fill="#CCCCCC" d="M-16.6-105.2l0.6-0.2v-2.5c0,0-0.1,2.3-0.3,2.4s-0.3-0.1-0.3-0.1V-105.2z"/>
			<path fill="#E6E6E6" d="M-16-108.6h-1.6v-1.6h1.6v-0.5h-0.6v-8.4h0.6v-0.5h-1.6v-1.6h1.6v-3.3h-17v19.3h17V-108.6z M-29.9-119.6
				h-0.8v-1.6h0.9c0.3-0.4,0.8-0.7,1.3-0.7c0.6,0,1.1,0.2,1.4,0.7l0,0h4.5v1.6h-4.5c-0.3,0.5-0.8,0.8-1.4,0.8
				C-29.1-118.8-29.6-119.1-29.9-119.6z M-29.9-108.7h-0.8v-1.6h0.9c0.3-0.4,0.8-0.7,1.3-0.7c0.6,0,1.1,0.2,1.4,0.7l0,0h4.5v1.6
				h-4.5c-0.3,0.5-0.8,0.8-1.4,0.8C-29.1-107.9-29.6-108.2-29.9-108.7z"/>
			<polygon fill="#F2F2F2" points="-33,-124.1 -33,-124.5 -16.6,-124.5 -16.6,-123 			"/>
			<polygon fill="#999999" points="-33,-105.2 -22.1,-105.8 -16.6,-106.4 -16.6,-105.2 			"/>
			<rect x="-22.8" y="-121.2" fill="#CCCCCC" width="0.1" height="1.6"/>
			<rect x="-22.8" y="-110.3" fill="#CCCCCC" width="0.1" height="1.6"/>
			<rect x="-32.8" y="-123.6" fill="#B3B3B3" width="0.7" height="17.4"/>
			<rect x="-33" y="-123.6" fill="#CCCCCC" width="0.3" height="17.4"/>
		</g>
	</g>
</g>
<g id="_x32_x03" transform="matrix(1, 0, 0, 1, 25.3785, 7.19519)">
	<g transform="matrix(0, 1, -1, 0, 17.793, -3.52001)">
		<g>
			<polygon fill="#A5A5A5" points="141.4,-94.7 137.5,-94.7 134.1,-94.7 130.2,-94.7 128.7,-93.2 128.7,-89.2 130.2,-87.7 
				134.1,-87.7 137.5,-87.7 141.4,-87.7 142.9,-89.2 142.9,-93.2 			"/>
			<polygon fill="#A5A5A5" points="141.4,-87.5 137.5,-87.5 134.1,-87.5 130.2,-87.5 128.7,-86 128.7,-82.1 130.2,-80.5 
				134.1,-80.5 137.5,-80.5 141.4,-80.5 142.9,-82.1 142.9,-86 			"/>
			<polygon fill="#A5A5A5" points="141.4,-80.3 137.5,-80.3 134.1,-80.3 130.2,-80.3 128.7,-78.8 128.7,-74.9 130.2,-73.4 
				134.1,-73.4 137.5,-73.4 141.4,-73.4 142.9,-74.9 142.9,-78.8 			"/>
			<polygon fill="#A5A5A5" points="141.4,-94.7 137.5,-94.7 134.1,-94.7 130.2,-94.7 128.7,-93.2 128.7,-89.2 130.2,-87.7 
				134.1,-87.7 137.5,-87.7 141.4,-87.7 142.9,-89.2 142.9,-93.2 			"/>
			<polygon fill="#A5A5A5" points="141.4,-87.5 137.5,-87.5 134.1,-87.5 130.2,-87.5 128.7,-86 128.7,-82.1 130.2,-80.5 
				134.1,-80.5 137.5,-80.5 141.4,-80.5 142.9,-82.1 142.9,-86 			"/>
			<polygon fill="#A5A5A5" points="141.4,-80.3 137.5,-80.3 134.1,-80.3 130.2,-80.3 128.7,-78.8 128.7,-74.9 130.2,-73.4 
				134.1,-73.4 137.5,-73.4 141.4,-73.4 142.9,-74.9 142.9,-78.8 			"/>
		</g>
	</g>
</g>
<polygon fill="#A5A5A5" enable-background="new    " points="46.1,126.5 46.1,125.5 42.4,125.5 42.3,125.5 42.3,125.5 42.3,125.5 
	42.3,132 42.3,132 42.3,132.8 42.3,132.9 42.3,132.9 42.3,132.9 42.3,132.9 42.4,132.9 46.1,132.9 46.1,132.9 46.1,132.9 
	46.1,131.8 46.1,131.8 46.1,126.5 "/>
<polygon fill="#A5A5A5" enable-background="new    " points="107.6,114.2 107.6,113.4 107.6,113.3 107.6,113.3 107.5,113.3 
	103.7,113.3 103.7,113.3 103.7,113.3 103.7,113.3 103.7,114.4 103.7,114.4 103.7,115 103.7,115 103.7,119.2 103.7,119.2 
	103.7,119.7 103.7,119.7 103.7,120.7 107.5,120.7 107.6,120.7 107.6,120.7 107.6,119.9 107.6,119.9 107.6,115.9 107.6,115.9 
	107.6,115.7 107.6,114.2 "/>
<polygon fill="#A5A5A5" enable-background="new    " points="102.2,114.2 102.2,113.4 102.2,113.3 102.2,113.3 102.2,113.3 
	98.3,113.3 98.3,113.3 98.3,113.3 98.3,114.4 98.3,114.4 98.3,115 98.3,115 98.3,119.2 98.3,119.2 98.3,119.7 98.3,119.7 
	98.3,120.7 102.1,120.7 102.2,120.7 102.2,120.7 102.2,120.7 102.2,120.7 102.2,120.7 102.2,119.9 102.2,119.9 102.2,115.9 
	102.2,115.9 102.2,115.9 102.2,114.2 "/>
<g>
	<polygon fill="#A5A5A5" enable-background="new    " points="139.6,116.3 139.9,116.3 139.9,116.3 139.9,114.1 139.9,114.1 
		139.6,114.1 137.3,114.1 137.3,112.4 137.4,112.4 137.4,112.1 137.3,112.1 131.1,112.1 131.1,112.1 131.1,112.4 122.8,112.4 
		122.8,112.1 122.8,112.1 122.8,112.1 116.6,112.1 116.6,114.7 116.6,128 116.6,130.6 122.8,130.6 122.8,130.6 122.8,130.6 
		122.8,130.2 131.1,130.2 131.1,130.6 137.3,130.6 137.3,130.6 137.4,130.6 137.4,130.2 137.3,130.2 137.3,128.6 139.6,128.6 
		139.9,128.6 139.9,128.6 139.9,126.3 139.9,126.3 139.6,126.3 137.3,126.3 137.3,123.1 139.6,123.1 139.9,123.1 139.9,123.1 
		139.9,119.7 139.9,119.7 139.6,119.7 137.3,119.7 137.3,116.3 	"/>
	<polygon fill="#A5A5A5" enable-background="new    " points="116.6,114.1 116.2,114.1 116.2,114.1 113.8,114.1 113.8,114.1 
		113.8,114.1 113.8,116.4 113.9,116.4 113.9,116.3 116.6,116.3 116.6,114.1 116.6,114.1 	"/>
	<polygon fill="#A5A5A5" enable-background="new    " points="116.6,126.3 116.2,126.3 116.2,126.3 113.8,126.3 113.8,126.4 
		113.8,126.4 113.8,128.6 113.9,128.6 113.9,128.6 116.6,128.6 116.6,126.3 116.6,126.3 	"/>
</g>
<rect x="56.3" y="118.8" transform="matrix(-0.7071 0.7071 -0.7071 -0.7071 204.1068 172.9512)" fill="#A5A5A5" width="19.9" height="19.9"/>
<g id="breadboard">
	<path fill="#FFFFFF" stroke="#A5A5A5" stroke-width="0.5" stroke-miterlimit="10" d="M11.3,5.2c1.6,0,2.9,1.3,2.9,2.9
		s-1.3,2.9-2.9,2.9S8.4,9.6,8.4,8S9.7,5.2,11.3,5.2z M11.3,99.8c-1.6,0-2.9-1.3-2.9-2.9S9.7,94,11.3,94s2.9,1.3,2.9,2.9
		C14.1,98.5,12.8,99.8,11.3,99.8z M224.9,5.1c1.6,0,2.9,1.3,2.9,2.9s-1.3,2.9-2.9,2.9s-2.9-1.3-2.9-2.9S223.4,5.1,224.9,5.1z
		 M224.9,99.8c-1.6,0-2.9-1.3-2.9-2.9c0-1.6,1.3-2.9,2.9-2.9s2.9,1.3,2.9,2.9C227.8,98.5,226.5,99.8,224.9,99.8z"/>
	<path fill="#414141" d="M222.3,66.7c-0.7,0-1.3-0.6-1.3-1.3V39.5c0-0.7,0.6-1.3,1.3-1.3h0.1v-20v-0.7h-0.7l-2-2v-0.7h-0.7H17.3
		h-0.7v0.7l-2,2h-0.7v0.7v20.1h0.1c0.7,0,1.3,0.6,1.3,1.3v25.8c0,0.7-0.6,1.3-1.3,1.3h-0.1v20v0.7h0.7l2,2v0.7h0.7h201.5h0.7v-0.7
		l2-2h0.7v-0.7L222.3,66.7L222.3,66.7z"/>
	<g>
		<path fill="#FFFFFF" d="M213.4,72.8c0,2.2-1.8,4-4,4H26.8c-2.2,0-4-1.8-4-4V32.1c0-2.2,1.8-4,4-4h182.5c2.2,0,4,1.8,4,4V72.8z"/>
		<g opacity="0.2">
			<path fill="#4C4C4C" d="M213.4,32.1v40.8c0,0,0,0,0,0L213.4,32.1C213.4,32.1,213.4,32.1,213.4,32.1z M26.8,28.1c-2.2,0-4,1.8-4,4
				v40.7c0,2.2,1.8,4,4,4h2.3c-2.2,0-4-1.8-4-4V33.4c0-2.2,1.8-4,4-4h183.2c-0.7-0.8-1.8-1.3-3-1.3H26.8z"/>
		</g>
	</g>
	<g>
		<path fill="#D1D3D4" d="M21.7,1.4v4.8c0,1.3,1.1,2.4,2.4,2.4c1.3,0,2.4-1.1,2.4-2.4V1.4H21.7z M24.2,6.3c-0.8,0-1.4-0.6-1.4-1.4
			s0.6-1.4,1.4-1.4s1.4,0.6,1.4,1.4S24.9,6.3,24.2,6.3z"/>
	</g>
	<g>
		<path fill="#D1D3D4" d="M28.9,1.4v4.8c0,1.3,1.1,2.4,2.4,2.4c1.3,0,2.4-1.1,2.4-2.4V1.4H28.9z M31.4,6.3c-0.8,0-1.4-0.6-1.4-1.4
			s0.6-1.4,1.4-1.4c0.8,0,1.4,0.6,1.4,1.4S32.1,6.3,31.4,6.3z"/>
	</g>
	<g>
		<path fill="#D1D3D4" d="M36.1,1.4v4.8c0,1.3,1.1,2.4,2.4,2.4c1.3,0,2.4-1.1,2.4-2.4V1.4H36.1z M38.6,6.3c-0.8,0-1.4-0.6-1.4-1.4
			s0.6-1.4,1.4-1.4s1.4,0.6,1.4,1.4S39.3,6.3,38.6,6.3z"/>
	</g>
	<g>
		<path fill="#D1D3D4" d="M43.3,1.4v4.8c0,1.3,1.1,2.4,2.4,2.4c1.3,0,2.4-1.1,2.4-2.4V1.4H43.3z M45.8,6.3c-0.8,0-1.4-0.6-1.4-1.4
			s0.6-1.4,1.4-1.4s1.4,0.6,1.4,1.4S46.5,6.3,45.8,6.3z"/>
	</g>
	<g>
		<path fill="#D1D3D4" d="M50.5,1.4v4.8c0,1.3,1.1,2.4,2.4,2.4c1.3,0,2.4-1.1,2.4-2.4V1.4H50.5z M53,6.3c-0.8,0-1.4-0.6-1.4-1.4
			s0.6-1.4,1.4-1.4s1.4,0.6,1.4,1.4S53.7,6.3,53,6.3z"/>
	</g>
	<g>
		<path fill="#D1D3D4" d="M57.7,1.4v4.8c0,1.3,1.1,2.4,2.4,2.4c1.3,0,2.4-1.1,2.4-2.4V1.4H57.7z M60.2,6.3c-0.8,0-1.4-0.6-1.4-1.4
			s0.6-1.4,1.4-1.4s1.4,0.6,1.4,1.4S60.9,6.3,60.2,6.3z"/>
	</g>
	<g>
		<path fill="#D1D3D4" d="M64.9,1.4v4.8c0,1.3,1.1,2.4,2.4,2.4c1.3,0,2.4-1.1,2.4-2.4V1.4H64.9z M67.4,6.3c-0.8,0-1.4-0.6-1.4-1.4
			s0.6-1.4,1.4-1.4c0.8,0,1.4,0.6,1.4,1.4S68.1,6.3,67.4,6.3z"/>
	</g>
	<g>
		<path fill="#D1D3D4" d="M72.1,1.4v4.8c0,1.3,1.1,2.4,2.4,2.4c1.3,0,2.4-1.1,2.4-2.4V1.4H72.1z M74.6,6.3c-0.8,0-1.4-0.6-1.4-1.4
			s0.6-1.4,1.4-1.4s1.4,0.6,1.4,1.4S75.3,6.3,74.6,6.3z"/>
	</g>
	<g>
		<path fill="#D1D3D4" d="M79.3,1.4v4.8c0,1.3,1.1,2.4,2.4,2.4c1.3,0,2.4-1.1,2.4-2.4V1.4H79.3z M81.8,6.3c-0.8,0-1.4-0.6-1.4-1.4
			s0.6-1.4,1.4-1.4s1.4,0.6,1.4,1.4S82.5,6.3,81.8,6.3z"/>
	</g>
	<g>
		<path fill="#D1D3D4" d="M86.5,1.4v4.8c0,1.3,1.1,2.4,2.4,2.4c1.3,0,2.4-1.1,2.4-2.4V1.4H86.5z M89,6.3c-0.8,0-1.4-0.6-1.4-1.4
			s0.6-1.4,1.4-1.4s1.4,0.6,1.4,1.4S89.7,6.3,89,6.3z"/>
	</g>
	<g>
		<path fill="#D1D3D4" d="M93.7,1.4v4.8c0,1.3,1.1,2.4,2.4,2.4c1.3,0,2.4-1.1,2.4-2.4V1.4H93.7z M96.2,6.3c-0.8,0-1.4-0.6-1.4-1.4
			s0.6-1.4,1.4-1.4s1.4,0.6,1.4,1.4S96.9,6.3,96.2,6.3z"/>
	</g>
	<g>
		<path fill="#D1D3D4" d="M100.9,1.4v4.8c0,1.3,1.1,2.4,2.4,2.4c1.3,0,2.4-1.1,2.4-2.4V1.4H100.9z M103.4,6.3
			c-0.8,0-1.4-0.6-1.4-1.4s0.6-1.4,1.4-1.4s1.4,0.6,1.4,1.4S104.1,6.3,103.4,6.3z"/>
	</g>
	<g>
		<path fill="#D1D3D4" d="M108.1,1.4v4.8c0,1.3,1.1,2.4,2.4,2.4c1.3,0,2.4-1.1,2.4-2.4V1.4H108.1z M110.6,6.3
			c-0.8,0-1.4-0.6-1.4-1.4s0.6-1.4,1.4-1.4s1.4,0.6,1.4,1.4S111.3,6.3,110.6,6.3z"/>
	</g>
	<g>
		<path fill="#D1D3D4" d="M115.3,1.4v4.8c0,1.3,1.1,2.4,2.4,2.4c1.3,0,2.4-1.1,2.4-2.4V1.4H115.3z M117.8,6.3
			c-0.8,0-1.4-0.6-1.4-1.4s0.6-1.4,1.4-1.4s1.4,0.6,1.4,1.4S118.5,6.3,117.8,6.3z"/>
	</g>
	<g>
		<path fill="#D1D3D4" d="M122.5,1.4v4.8c0,1.3,1.1,2.4,2.4,2.4c1.3,0,2.4-1.1,2.4-2.4V1.4H122.5z M125,6.3c-0.8,0-1.4-0.6-1.4-1.4
			s0.6-1.4,1.4-1.4s1.4,0.6,1.4,1.4S125.7,6.3,125,6.3z"/>
	</g>
	<g>
		<path fill="#D1D3D4" d="M129.7,1.4v4.8c0,1.3,1.1,2.4,2.4,2.4c1.3,0,2.4-1.1,2.4-2.4V1.4H129.7z M132.2,6.3
			c-0.8,0-1.4-0.6-1.4-1.4s0.6-1.4,1.4-1.4c0.8,0,1.4,0.6,1.4,1.4S132.9,6.3,132.2,6.3z"/>
	</g>
	<g>
		<rect x="32.5" y="52.8" fill="#1A1A1A" fill-opacity="0.1" width="10" height="16.5"/>
		<rect x="43.3" y="52.8" fill="#1A1A1A" fill-opacity="0.1" width="10" height="16.5"/>
		<rect x="54" y="52.8" fill="#1A1A1A" fill-opacity="0.1" width="10" height="16.5"/>
		<rect x="64.7" y="52.8" fill="#1A1A1A" fill-opacity="0.1" width="10" height="16.5"/>
		<rect x="75.5" y="52.8" fill="#1A1A1A" fill-opacity="0.1" width="10" height="16.5"/>
		<rect x="86.2" y="52.8" fill="#1A1A1A" fill-opacity="0.1" width="10" height="16.5"/>
		<rect x="97" y="52.8" fill="#1A1A1A" fill-opacity="0.1" width="10" height="16.5"/>
		<rect x="107.7" y="52.8" fill="#1A1A1A" fill-opacity="0.1" width="10" height="16.5"/>
		<rect x="118.5" y="52.8" fill="#1A1A1A" fill-opacity="0.1" width="10" height="16.5"/>
		<rect x="129.2" y="52.8" fill="#1A1A1A" fill-opacity="0.1" width="10" height="16.5"/>
		<rect x="140" y="52.8" fill="#1A1A1A" fill-opacity="0.1" width="10" height="16.5"/>
		<rect x="150.7" y="52.8" fill="#1A1A1A" fill-opacity="0.1" width="10" height="16.5"/>
		<rect x="161.4" y="52.8" fill="#1A1A1A" fill-opacity="0.1" width="10" height="16.5"/>
		<rect x="172.2" y="52.8" fill="#1A1A1A" fill-opacity="0.1" width="10" height="16.5"/>
		<rect x="182.9" y="52.8" fill="#1A1A1A" fill-opacity="0.1" width="10" height="16.5"/>
		<rect x="193.7" y="52.8" fill="#1A1A1A" fill-opacity="0.1" width="10" height="16.5"/>
		<rect x="32.5" y="35.6" fill="#1A1A1A" fill-opacity="0.1" width="10" height="16.5"/>
		<rect x="43.3" y="35.6" fill="#1A1A1A" fill-opacity="0.1" width="10" height="16.5"/>
		<rect x="54" y="35.6" fill="#1A1A1A" fill-opacity="0.1" width="10" height="16.5"/>
		<rect x="64.7" y="35.6" fill="#1A1A1A" fill-opacity="0.1" width="10" height="16.5"/>
		<rect x="75.5" y="35.6" fill="#1A1A1A" fill-opacity="0.1" width="10" height="16.5"/>
		<rect x="86.2" y="35.6" fill="#1A1A1A" fill-opacity="0.1" width="10" height="16.5"/>
		<rect x="97" y="35.6" fill="#1A1A1A" fill-opacity="0.1" width="10" height="16.5"/>
		<rect x="107.7" y="35.6" fill="#1A1A1A" fill-opacity="0.1" width="10" height="16.5"/>
		<rect x="118.5" y="35.6" fill="#1A1A1A" fill-opacity="0.1" width="10" height="16.5"/>
		<rect x="129.2" y="35.6" fill="#1A1A1A" fill-opacity="0.1" width="10" height="16.5"/>
		<rect x="140" y="35.6" fill="#1A1A1A" fill-opacity="0.1" width="10" height="16.5"/>
		<rect x="150.7" y="35.6" fill="#1A1A1A" fill-opacity="0.1" width="10" height="16.5"/>
		<rect x="161.4" y="35.6" fill="#1A1A1A" fill-opacity="0.1" width="10" height="16.5"/>
		<rect x="172.2" y="35.6" fill="#1A1A1A" fill-opacity="0.1" width="10" height="16.5"/>
		<rect x="182.9" y="35.6" fill="#1A1A1A" fill-opacity="0.1" width="10" height="16.5"/>
		<rect x="193.7" y="35.6" fill="#1A1A1A" fill-opacity="0.1" width="10" height="16.5"/>
	</g>
	<rect x="4.7" y="1.4" fill="none" stroke="#414141" stroke-width="0.5" stroke-miterlimit="10" width="226.8" height="102"/>
</g>
<g id="b3f-10xx" transform="matrix(1, 0, 0, 1, 99.1634, 140.039)">
	<g transform="matrix(-1, 0, 0, -1, 17.641, 23.608)">
		<g>
			<path fill="#999999" d="M-39.1,39.1c0,0.8-0.6,1.4-1.4,1.4h-14.8c-0.8,0-1.4-0.6-1.4-1.4V24.3c0-0.8,0.6-1.4,1.4-1.4h14.8
				c0.8,0,1.4,0.6,1.4,1.4L-39.1,39.1L-39.1,39.1z"/>
			<circle cx="-54.2" cy="25.4" r="1.5"/>
			<circle cx="-41.6" cy="25.5" r="1.5"/>
			<circle cx="-41.7" cy="38" r="1.5"/>
			<circle cx="-54.2" cy="38" r="1.5"/>
			<circle fill="#3F3F3F" cx="-47.9" cy="31.7" r="5.1"/>
			
				<linearGradient id="SVGID_1_" gradientUnits="userSpaceOnUse" x1="459.4597" y1="2092.1648" x2="473.7613" y2="2092.1648" gradientTransform="matrix(-0.7195 0 0 0.7195 277.5053 -1473.6302)">
				<stop  offset="0" style="stop-color:#333333"/>
				<stop  offset="1" style="stop-color:#3C3C3C"/>
			</linearGradient>
			<circle fill="url(#SVGID_1_)" cx="-47.9" cy="31.7" r="5.1"/>
			<circle opacity="0.6" enable-background="new    " cx="-47.8" cy="32.3" r="4.5"/>
			<circle fill="#735348" cx="-47.9" cy="31.7" r="4.4"/>
			<path opacity="0.5" fill="#FFFFFF" enable-background="new    " d="M-54.4,25.4c0-0.1,0.1-0.1,0.2-0.1l-0.2-1c-0.1,0-0.1,0-0.2,0
				v0c-0.4,0.1-0.6,0.4-0.8,0.7L-54.4,25.4z"/>
			<path opacity="0.5" fill="#FFFFFF" enable-background="new    " d="M-41.8,25.4c0-0.1,0.1-0.1,0.2-0.1l-0.1-1c-0.1,0-0.1,0-0.2,0
				l0,0c-0.4,0.1-0.6,0.4-0.8,0.7L-41.8,25.4z"/>
			<path opacity="0.5" fill="#FFFFFF" enable-background="new    " d="M-41.9,37.9c0-0.1,0.1-0.1,0.2-0.1l-0.1-1c-0.1,0-0.1,0-0.2,0
				l0,0c-0.4,0.1-0.6,0.4-0.8,0.7L-41.9,37.9z"/>
			<path opacity="0.5" fill="#FFFFFF" enable-background="new    " d="M-54.4,37.9c0-0.1,0.1-0.1,0.2-0.1l-0.2-1c-0.1,0-0.1,0-0.2,0
				l0,0c-0.4,0.1-0.6,0.4-0.8,0.7L-54.4,37.9z"/>
			<path opacity="0.6" fill="#FFFFFF" enable-background="new    " d="M-46.3,27.6c-0.3-0.1-0.7-0.2-1.1-0.3
				c-0.9-0.1-1.9,0.1-2.6,0.5l-0.1,0.3c0.9-0.5,1.9-0.7,2.9-0.6c0.3,0,0.6,0.1,0.9,0.2L-46.3,27.6z"/>
		</g>
	</g>
</g>
<g id="b3f-10xx_1_" transform="matrix(1, 0, 0, 1, 99.1634, 140.039)">
	<g transform="matrix(-1, 0, 0, -1, 17.641, 23.608)">
		<g>
			<path fill="#999999" d="M-82.9,39.1c0,0.8-0.6,1.4-1.4,1.4h-14.8c-0.8,0-1.4-0.6-1.4-1.4V24.3c0-0.8,0.6-1.4,1.4-1.4h14.8
				c0.8,0,1.4,0.6,1.4,1.4L-82.9,39.1L-82.9,39.1z"/>
			<circle cx="-98" cy="25.4" r="1.5"/>
			<circle cx="-85.5" cy="25.5" r="1.5"/>
			<circle cx="-85.5" cy="38" r="1.5"/>
			<circle cx="-98" cy="38" r="1.5"/>
			<circle fill="#3F3F3F" cx="-91.8" cy="31.7" r="5.1"/>
			
				<linearGradient id="SVGID_2_" gradientUnits="userSpaceOnUse" x1="520.3621" y1="2092.1648" x2="534.6636" y2="2092.1648" gradientTransform="matrix(-0.7195 0 0 0.7195 277.5053 -1473.6302)">
				<stop  offset="0" style="stop-color:#333333"/>
				<stop  offset="1" style="stop-color:#3C3C3C"/>
			</linearGradient>
			<circle fill="url(#SVGID_2_)" cx="-91.8" cy="31.7" r="5.1"/>
			<circle opacity="0.6" enable-background="new    " cx="-91.7" cy="32.3" r="4.5"/>
			<circle fill="#735348" cx="-91.7" cy="31.7" r="4.4"/>
			<path opacity="0.5" fill="#FFFFFF" enable-background="new    " d="M-98.2,25.4c0-0.1,0.1-0.1,0.2-0.1l-0.2-1c-0.1,0-0.1,0-0.2,0
				v0c-0.4,0.1-0.6,0.4-0.8,0.7L-98.2,25.4z"/>
			<path opacity="0.5" fill="#FFFFFF" enable-background="new    " d="M-85.7,25.4c0-0.1,0.1-0.1,0.2-0.1l-0.1-1c-0.1,0-0.1,0-0.2,0
				l0,0c-0.4,0.1-0.6,0.4-0.8,0.7L-85.7,25.4z"/>
			<path opacity="0.5" fill="#FFFFFF" enable-background="new    " d="M-85.7,37.9c0-0.1,0.1-0.1,0.2-0.1l-0.1-1c-0.1,0-0.1,0-0.2,0
				l0,0c-0.4,0.1-0.6,0.4-0.8,0.7L-85.7,37.9z"/>
			<path opacity="0.5" fill="#FFFFFF" enable-background="new    " d="M-98.2,37.9c0-0.1,0.1-0.1,0.2-0.1l-0.2-1c-0.1,0-0.1,0-0.2,0
				l0,0c-0.4,0.1-0.6,0.4-0.8,0.7L-98.2,37.9z"/>
			<path opacity="0.6" fill="#FFFFFF" enable-background="new    " d="M-90.2,27.6c-0.3-0.1-0.7-0.2-1.1-0.3
				c-0.9-0.1-1.9,0.1-2.6,0.5l-0.1,0.3c0.9-0.5,1.9-0.7,2.9-0.6c0.3,0,0.6,0.1,0.9,0.2L-90.2,27.6z"/>
		</g>
	</g>
</g>
<g>
	<path d="M154.9,115.3c-0.1-0.3-0.2-0.7-0.6-0.7c-0.4,0-0.6,0.4-0.6,0.7c0,0.4,0.1,0.5,0.8,0.9c0.6,0.3,1,0.6,1,1.4
		c0,0.7-0.4,1.3-1.2,1.3c-0.8,0-1.1-0.5-1.2-1.3l0.5-0.1c0.1,0.5,0.2,0.9,0.7,0.9c0.4,0,0.7-0.3,0.7-0.8c0-0.6-0.4-0.8-0.9-1.1
		c-0.5-0.3-0.9-0.5-0.9-1.2c0-0.6,0.4-1.2,1.1-1.2c0.7,0,1,0.5,1.1,1.1L154.9,115.3z"/>
	<path d="M157.4,115.3h2.3v0.4h-1.8v1.1h1.5v0.4h-1.5v1.3h1.8v0.4h-2.3V115.3z"/>
	<path d="M161.7,115.3h0.5v3.2h1.9v0.4h-2.4V115.3z"/>
	<path d="M165.8,115.3h2.3v0.4h-1.8v1.1h1.5v0.4h-1.5v1.3h1.8v0.4h-2.3V115.3z"/>
	<path d="M172.3,118.2c-0.3,0.5-0.6,0.8-1.2,0.8c-1.1,0-1.4-1-1.4-1.9c0-1.5,0.8-1.9,1.4-1.9c0.6,0,0.9,0.3,1.2,0.8l-0.4,0.2
		c-0.2-0.3-0.4-0.6-0.7-0.6c-0.7,0-0.9,0.9-0.9,1.4c0,0.6,0.1,1.5,0.9,1.5c0.4,0,0.6-0.3,0.9-0.6L172.3,118.2z"/>
	<path d="M175,115.7h-1v-0.4h2.5v0.4h-1v3.2H175V115.7z"/>
</g>
<g>
	<path d="M203.7,118.9h-0.5v-4.7h1c0.8,0,1.3,0.4,1.3,1.2c0,0.9-0.5,1.4-1.1,1.4h-0.7V118.9z M203.7,116.4l0.7,0
		c0.4,0,0.7-0.3,0.7-0.9c0-0.6-0.3-0.8-0.8-0.8h-0.5V116.4z"/>
	<path d="M209.7,117.1c0,0.3,0,1.9-1.3,1.9c-0.6,0-1.3-0.4-1.3-1.9c0-1.5,0.7-1.9,1.3-1.9C208.9,115.2,209.7,115.6,209.7,117.1z
		 M207.6,117.1c0,0.5,0.1,1.4,0.8,1.4c0.7,0,0.8-0.9,0.8-1.4c0-0.5-0.1-1.4-0.8-1.4C207.7,115.6,207.6,116.5,207.6,117.1z"/>
	<path d="M212.1,118.9h-0.5v-3.6h1.1c0.8,0,1.2,0.5,1.2,1c0,0.8-0.5,1.1-1.1,1.1h-0.8V118.9z M212.7,116.9c0.5,0,0.7-0.2,0.7-0.6
		c0-0.5-0.3-0.6-0.7-0.6h-0.6v1.2H212.7z"/>
</g>
</svg>
