<?xml version="1.0" encoding="UTF-8" standalone="no"?>
<svg width="523px" height="166px" viewBox="0 0 523 166" version="1.1" xmlns="http://www.w3.org/2000/svg" xmlns:xlink="http://www.w3.org/1999/xlink" xmlns:sketch="http://www.bohemiancoding.com/sketch/ns">
    <!-- Generator: Sketch 3.4.1 (15681) - http://www.bohemiancoding.com/sketch -->
    <title>screen</title>
    <desc>Created with Sketch.</desc>
    <defs>
        <filter x="-50%" y="-50%" width="200%" height="200%" filterUnits="objectBoundingBox" id="filter-1">
            <feMorphology radius="1" in="SourceAlpha" operator="dilate" result="shadowSpreadInner1"></feMorphology>
            <feOffset dx="1" dy="1" in="shadowSpreadInner1" result="shadowOffsetInner1"></feOffset>
            <feGaussianBlur stdDeviation="0" in="shadowOffsetInner1" result="shadowBlurInner1"></feGaussianBlur>
            <feComposite in="shadowBlurInner1" in2="SourceAlpha" operator="arithmetic" k2="-1" k3="1" result="shadowInnerInner1"></feComposite>
            <feColorMatrix values="0 0 0 0 0   0 0 0 0 0   0 0 0 0 0  0 0 0 0.123443161 0" in="shadowInnerInner1" type="matrix" result="shadowMatrixInner1"></feColorMatrix>
            <feMerge>
                <feMergeNode in="SourceGraphic"></feMergeNode>
                <feMergeNode in="shadowMatrixInner1"></feMergeNode>
            </feMerge>
        </filter>
    </defs>
    <g id="Page-1" stroke="none" stroke-width="1" fill="none" fill-rule="evenodd" sketch:type="MSPage">
        <rect id="Rectangle-34" fill="#31302F" sketch:type="MSShapeGroup" x="0" y="0" width="523" height="166" rx="8"></rect>
        <g id="Rectangle-1-+-Group-+-Group" sketch:type="MSLayerGroup" transform="translate(23.000000, 22.000000)">
            <rect id="Rectangle-1" fill="#AD3434" filter="url(#filter-1)" sketch:type="MSShapeGroup" x="0" y="0" width="478" height="123" rx="14"></rect>
            <g id="Group" transform="translate(24.000000, 19.000000)" fill="#D43D3D" sketch:type="MSShapeGroup">
                <rect id="Rectangle-2" x="0" y="0" width="25" height="41"></rect>
                <rect id="Rectangle-2" x="27" y="0" width="25" height="41"></rect>
                <rect id="Rectangle-2" x="54" y="0" width="25" height="41"></rect>
                <rect id="Rectangle-2" x="81" y="0" width="25" height="41"></rect>
                <rect id="Rectangle-2" x="108" y="0" width="25" height="41"></rect>
                <rect id="Rectangle-2" x="135" y="0" width="25" height="41"></rect>
                <rect id="Rectangle-2" x="162" y="0" width="25" height="41"></rect>
                <rect id="Rectangle-2" x="189" y="0" width="25" height="41"></rect>
                <rect id="Rectangle-2" x="216" y="0" width="25" height="41"></rect>
                <rect id="Rectangle-2" x="243" y="0" width="25" height="41"></rect>
                <rect id="Rectangle-2" x="270" y="0" width="25" height="41"></rect>
                <rect id="Rectangle-2" x="297" y="0" width="25" height="41"></rect>
                <rect id="Rectangle-2" x="324" y="0" width="25" height="41"></rect>
                <rect id="Rectangle-2" x="351" y="0" width="25" height="41"></rect>
                <rect id="Rectangle-2" x="378" y="0" width="25" height="41"></rect>
                <rect id="Rectangle-2" x="405" y="0" width="25" height="41"></rect>
            </g>
            <g id="Group" transform="translate(24.000000, 63.000000)" fill="#D43D3D" sketch:type="MSShapeGroup">
                <rect id="Rectangle-2" x="0" y="0" width="25" height="41"></rect>
                <rect id="Rectangle-2" x="27" y="0" width="25" height="41"></rect>
                <rect id="Rectangle-2" x="54" y="0" width="25" height="41"></rect>
                <rect id="Rectangle-2" x="81" y="0" width="25" height="41"></rect>
                <rect id="Rectangle-2" x="108" y="0" width="25" height="41"></rect>
                <rect id="Rectangle-2" x="135" y="0" width="25" height="41"></rect>
                <rect id="Rectangle-2" x="162" y="0" width="25" height="41"></rect>
                <rect id="Rectangle-2" x="189" y="0" width="25" height="41"></rect>
                <rect id="Rectangle-2" x="216" y="0" width="25" height="41"></rect>
                <rect id="Rectangle-2" x="243" y="0" width="25" height="41"></rect>
                <rect id="Rectangle-2" x="270" y="0" width="25" height="41"></rect>
                <rect id="Rectangle-2" x="297" y="0" width="25" height="41"></rect>
                <rect id="Rectangle-2" x="324" y="0" width="25" height="41"></rect>
                <rect id="Rectangle-2" x="351" y="0" width="25" height="41"></rect>
                <rect id="Rectangle-2" x="378" y="0" width="25" height="41"></rect>
                <rect id="Rectangle-2" x="405" y="0" width="25" height="41"></rect>
            </g>
        </g>
    </g>
</svg>